<svg xmlns="http://www.w3.org/2000/svg" viewBox="0 0 64 64" width="64" height="64">
  <rect width="64" height="64" rx="14" fill="#46464e"/>
  <path d="M24 13c-3 3-3 7 0 10M32 11c-3 3-3 7 0 10M40 13c-3 3-3 7 0 10" stroke="#9a9a9a" stroke-width="2.5" stroke-linecap="round" fill="none" opacity="0.7"/>
  <path d="M11 33c-5 0-6 9 0 10" stroke="#212127" stroke-width="4" fill="none" stroke-linecap="round"/>
  <path d="M53 33c5 0 6 9 0 10" stroke="#212127" stroke-width="4" fill="none" stroke-linecap="round"/>
  <path d="M14 29h36l-4 23a4 4 0 0 1-4 3H22a4 4 0 0 1-4-3z" fill="#2c2c31"/>
  <ellipse cx="32" cy="29" rx="20" ry="5" fill="#212127"/>
  <ellipse cx="32" cy="28" rx="17" ry="4" fill="#6f8f64"/>
  <circle cx="25" cy="28" r="2" fill="#bfe0ad"/>
  <circle cx="36" cy="27" r="1.6" fill="#bfe0ad"/>
  <circle cx="32" cy="29" r="1.2" fill="#bfe0ad"/>
</svg>

